<svg id="Picture" xmlns="http://www.w3.org/2000/svg" viewBox="0 0 117.08 199.09"><defs><style>.cls-1{fill:#e6e7e8;opacity:0.5;}.cls-2{fill:#fff;stroke:#231f20;}.cls-2,.cls-5,.cls-7{stroke-width:0.2px;}.cls-3{fill:#fed206;}.cls-4,.cls-7{fill:none;}.cls-4{stroke:#999b9e;stroke-width:0.5px;}.cls-5,.cls-6{fill:#39424c;}.cls-5,.cls-7{stroke:#fff;}.cls-8{font-size:8px;fill:#231f20;}.cls-8,.cls-9{font-family:Arial;font-weight:700;}.cls-9{font-size:11px;fill:#942c61;}</style></defs><title>CIA_torture_3</title><path class="cls-1" d="M116.25,196.8a2.08,2.08,0,0,1-1.75,2.29H1.75A2.08,2.08,0,0,1,0,196.8V3.45A2.08,2.08,0,0,1,1.75,1.16H114.49a2.08,2.08,0,0,1,1.75,2.29V196.8Z"/><polygon class="cls-2" points="104.63 169.53 104.63 93.39 79.46 90.19 79.46 167.79 86.95 169.53 104.63 169.53"/><path class="cls-2" d="M28.11,129.31a18.67,18.67,0,0,1,7.09.69l2.09,0.56a58,58,0,0,1,15.44-1.39l3.2-.28,1.25-3.06,2.22-2.08s1.11,0.28,0,1.67l-0.7,1.11,3.06-2.64,3.2-1.67s1.39,0.83-.28,1.53l1.32-.84s1.88,0.63-.1,1.77c0,0,2,.31-0.83,2.19l-1.15.63H66s0.31,0.84-.94,1l-1.88.73a14.54,14.54,0,0,1-3,1.56l-2.4.73s-11.16,6-20.55,6.26a21.17,21.17,0,0,1-13-.52Z"/><path class="cls-2" d="M11.16,127.12S7,132.68,12,136.68c0,0,2.67,3.27,11,2l2.82,0.53s3.34-6.8,3.06-10.65l-3.39-.42s-6.49-6.31-13.16-2Z"/><path class="cls-2" d="M30.09,136.29a18.69,18.69,0,0,1,7.09.7l2.09,0.56a58,58,0,0,1,15.44-1.39l3.2-.28,1.25-3.06,2.22-2.09s1.11,0.28,0,1.67l-0.7,1.11,3.06-2.64,3.2-1.67s1.39,0.83-.28,1.53L68,129.9s1.88,0.63-.1,1.77c0,0,2,.31-0.83,2.19l-1.15.63H68s0.31,0.83-.94,1l-1.88.73a14.58,14.58,0,0,1-3,1.56l-2.4.73s-11.16,6-20.55,6.26a21.17,21.17,0,0,1-13-.52Z"/><path class="cls-2" d="M11.45,122.32s8.07,1.39,10.71,5.84a22,22,0,0,1,3.76,16.41l-1.53,4.87-1,16.55v3.89H4.09S-3,128,11.45,122.32"/><path class="cls-2" d="M28.7,112.86l-1.25-3.06,0.42-2.23a27.65,27.65,0,0,0-1-3.44c-1-4.73-9.39-3.55-9.39-3.55s-6.46.52-6.46,6.78a32.27,32.27,0,0,0,2.5,11.26l-1.71,3.74c1.19,0.24,5.67,1.29,8.61,3.75l2-4.78,3.86-.11c1.46-.11.73-2.61,0.73-2.61l0.21-.73-0.21-.62,0.63-.83-0.1-1.88,0.73-.52C29.64,113.83,28.7,112.86,28.7,112.86Z"/><path class="cls-2" d="M13.14,134.1S9,139.67,14,143.67c0,0,2.67,3.27,11,2l2.82,0.53s3.34-6.8,3.06-10.65l-3.4-.42S21,128.8,14.34,133.06Z"/><path class="cls-3" d="M47.06,118a61.64,61.64,0,0,1,14.23,1l-0.37,3.12a61.6,61.6,0,0,0-14.23-1l-0.19,1.49-3.65-3.09,4.37-3Z"/><path class="cls-3" d="M58.61,150.31a61.66,61.66,0,0,1-14.23-1l0.37-3.12a61.56,61.56,0,0,0,14.23,1l0.19-1.49,3.65,3.09-4.37,3Z"/><polygon class="cls-2" points="104.63 169.53 106.71 169.53 106.71 92.28 81.54 89.08 79.46 90.19 104.63 93.39 104.63 169.53"/><path class="cls-4" d="M108.94,100.62s4.17,33.24.55,58"/><path class="cls-4" d="M112.45,109.29a276,276,0,0,1,.82,37.75"/><polygon class="cls-3" points="87.06 117.68 88.46 124.55 92.53 118.84 91.01 125.69 97.05 122.13 92.88 127.77 99.84 126.97 93.74 130.42 100.43 132.53 93.45 133.2 98.7 137.85 92.05 135.62 94.96 142 89.79 137.27 89.85 144.28 87.06 137.85 84.26 144.28 84.32 137.27 79.16 142 82.06 135.62 75.42 137.85 80.66 133.2 73.69 132.53 80.37 130.42 74.27 126.97 81.23 127.77 77.07 122.13 83.11 125.69 81.59 118.84 85.66 124.55 87.06 117.68"/><path class="cls-5" d="M68,110.77l3-3.22-0.61-1.36a40.21,40.21,0,0,1,2.53-4c4-3.75,10-1.26,10-1.26s7,2.85,4.12,9.35c-2.39,5.46-4.47,9.12-4.47,9.12l0.79,4c-1.21,0-5.82-.07-9.24,1.64l-0.8-5.1L69,118.52c-1.4-.44.1-2.23,0.1-2.23L69,115.18l0.78-.24-1-.66,1.11-2.09L68.22,112C66.85,111.49,68,110.77,68,110.77Z"/><path class="cls-5" d="M73.76,124s6.12-3.2,11.26-.14a26,26,0,0,1,5.32,20.23l-1,9.81v16H70.42V151s-1.88-10-1.67-14.08c0,0,.76-9.32,4.31-11.93Z"/><path class="cls-5" d="M79.7,128.39s-3.1,2.69-1.34,8.59L82,143.28l1.13,2.41s7.17-1.86,9.18-3.75l-1.62-4.44s-1.9-13.92-11-9.11"/><path class="cls-6" d="M94.73,151.24a72.85,72.85,0,0,0-2.67-9.06c-1.66,1.29-5.49,2.53-7.54,3.13a29.54,29.54,0,0,0,3.23,5.92l0.78,1.42s-1.56,13.27-.17,17.23h5.17S95.4,154,94.73,151.24Z"/><path class="cls-7" d="M94.73,151.24a72.85,72.85,0,0,0-2.67-9.06c-1.66,1.29-5.49,2.53-7.54,3.13a29.54,29.54,0,0,0,3.23,5.92l0.78,1.42s-1.56,13.27-.17,17.23h5.17S95.4,154,94.73,151.24Z"/><text class="cls-8" transform="translate(32.34 44.84)">Slam against <tspan x="-1.56" y="8.5">a false flexible</tspan><tspan x="1.78" y="17">wall made to</tspan><tspan x="3.34" y="25.5">create loud </tspan><tspan x="15.34" y="34">noise</tspan></text><text class="cls-9" transform="translate(36.18 27.96)">W<tspan x="9.97" y="0">alling</tspan></text></svg>