<svg id="Picture" xmlns="http://www.w3.org/2000/svg" viewBox="0 0 117.08 199.09"><defs><style>.cls-1{fill:#e6e7e8;opacity:0.5;}.cls-2{fill:#39424c;stroke:#fff;}.cls-2,.cls-3{stroke-width:0.2px;}.cls-3{fill:#fff;stroke:#231f20;}.cls-4{fill:#fed206;}.cls-5{font-size:11px;fill:#942c61;}.cls-5,.cls-6{font-family:Arial;font-weight:700;}.cls-6{font-size:8px;fill:#231f20;}</style></defs><title>CIA_torture_4</title><path class="cls-1" d="M116.25,196.8a2.08,2.08,0,0,1-1.75,2.29H1.75A2.08,2.08,0,0,1,0,196.8V3.45A2.08,2.08,0,0,1,1.75,1.16H114.49a2.08,2.08,0,0,1,1.75,2.29V196.8Z"/><path class="cls-2" d="M101.88,168.44l0.65-6.07a29.84,29.84,0,0,0-6.11-23.23c-5.91-3.51-12.93.16-12.93,0.16l-0.8,1.12c-4.07,3-4.95,13.69-4.95,13.69-0.18,3.51,1,10.89,1.59,14.33h22.55Z"/><path class="cls-3" d="M35,168.44v-3.35l1.12-19,1.76-5.59a25.3,25.3,0,0,0-4.31-18.84c-3-5.11-12.29-6.7-12.29-6.7C7.8,120.25,12,155.24,14,168.44H35Z"/><path class="cls-2" d="M76.86,124.13l3.43-3.69-0.7-1.56a46,46,0,0,1,2.91-4.6c4.64-4.31,11.43-1.45,11.43-1.45s8,3.27,4.73,10.74C95.93,129.84,93.54,134,93.54,134l0.91,4.64c-1.39,0-6.68-.08-10.61,1.88l-0.92-5.86L78.05,133c-1.6-.51.12-2.55,0.12-2.55L78,129.2l0.89-.28-1.13-.77,1.28-2.4-1.89-.16C75.56,125,76.86,124.13,76.86,124.13Z"/><path class="cls-2" d="M90.31,144.37s-3.57,3.09-1.54,9.87L93,161.46l1.29,2.77s8.23-2.13,10.53-4.3L103,154.83s-2.18-16-12.66-10.46"/><path class="cls-3" d="M42.62,131s4.79-.48,8.14.8l2.4,0.64a66.61,66.61,0,0,1,17.72-1.6l3.67-.32L76,127l2.55-2.39s1.28,0.32,0,1.92l-0.8,1.28,3.52-3,3.67-1.92s1.6,1-.32,1.76l1.51-1s2.16,0.72-.12,2c0,0,2.28.36-1,2.51l-1.32.72h2.39s0.36,1-1.07,1.2l-2.16.84a16.84,16.84,0,0,1-3.47,1.8l-2.75.84s-12.81,6.94-23.59,7.18a24.32,24.32,0,0,1-15-.6Z"/><path class="cls-3" d="M41,104.1l-1.44-3.51L40.06,98a32.22,32.22,0,0,0-1.2-4C37.75,88.66,28.09,90,28.09,90s-7.42.6-7.42,7.79a37.08,37.08,0,0,0,2.87,12.93l-2,4.3c1.37,0.28,6.52,1.48,9.88,4.3l2.26-5.48,4.43-.12c1.67-.12.84-3,0.84-3l0.24-.84L39,109.17l0.72-1-0.12-2.16,0.84-.6C42.1,105.22,41,104.1,41,104.1Z"/><path class="cls-3" d="M23.16,128.49s-4.81,6.39,1,11c0,0,3.06,3.76,12.67,2.27L40,142.35s3.83-7.8,3.51-12.23l-3.9-.48s-7.45-7.24-15.1-2.35Z"/><path class="cls-2" d="M107,168.44a65.37,65.37,0,0,0-2.47-8.25c-1.91,1.48-6.31,2.91-8.66,3.6A41.92,41.92,0,0,0,98,168.44h9Z"/><path class="cls-4" d="M81.51,130.52L76.37,133l1.51,0.74a35.67,35.67,0,0,1-15,15.36l1.73,3.26a36.74,36.74,0,0,0,15.67-15.9l0.58-1.14,1.8,1Z"/><text class="cls-5" transform="translate(29.47 27.96)">Facial slap</text><text class="cls-6" transform="translate(31.16 44.84)">“the purpose...<tspan x="6" y="8.5">is to induce</tspan><tspan x="-2.46" y="17">shock, surprise,</tspan><tspan x="14.89" y="25.5">and/or </tspan><tspan x="4.89" y="34">humiliation”</tspan></text></svg>