<svg id="Picture" xmlns="http://www.w3.org/2000/svg" viewBox="0 0 117.08 199.09"><defs><style>.cls-1{fill:#e6e7e8;opacity:0.5;}.cls-2{fill:#fff;stroke:#231f20;}.cls-2,.cls-3,.cls-5{stroke-width:0.2px;}.cls-3,.cls-4{fill:#39424c;}.cls-3,.cls-5{stroke:#fff;}.cls-5{fill:none;}.cls-6{fill:#fed206;}.cls-7{font-size:8px;fill:#231f20;}.cls-7,.cls-8{font-family:Arial;font-weight:700;}.cls-8{font-size:11px;fill:#942c61;}</style></defs><title>CIA_torture_1</title><path class="cls-1" d="M116.25,196.8a2.08,2.08,0,0,1-1.75,2.29H1.75A2.08,2.08,0,0,1,0,196.8V3.45A2.08,2.08,0,0,1,1.75,1.16H114.49a2.08,2.08,0,0,1,1.75,2.29V196.8Z"/><path class="cls-2" d="M24,116.25s-8.85,5-4.43,13.32c0,0,1.69,5.94,13.67,9.06L36.75,141s8.43-7.19,10.29-12.53l-4.32-2.53s-5.06-12.24-16.47-10.38Z"/><path class="cls-2" d="M78.77,106.58l-3.46.61-2.64.61L73.07,106s-1.42-1.63-3.05.41l-2.24,3.46v3.46A37.85,37.85,0,0,1,67,118l-5.9,8.95s-3.66,5.8-5.29,8c0,0-5.3-6.6-8.75-6.5-1.49,4.26-7.15,9.7-9.38,11.72,3.15,1.86,12,6.72,18.43,6.66l5.64-.28,10.12-23.08s1.22-3.86,2.65-4.27l4.27-1.63S84.46,110.44,78.77,106.58Z"/><path class="cls-2" d="M23.86,110.64s11.8,2,15.66,8.54a32.22,32.22,0,0,1,5.49,24l-2.24,7.12-1.42,24.2v4.88H15.82s-13.12-60.4,8-68.74"/><path class="cls-3" d="M66.26,93.75L70.63,89l-0.89-2a58.93,58.93,0,0,1,3.71-5.86C79.37,75.72,88,79.36,88,79.36S98.2,83.52,94,93c-3.5,8-6.54,13.33-6.54,13.33l1.16,5.91c-1.77-.06-8.51-0.1-13.52,2.39L74,107.2l-6.19-2.11c-2-.65.15-3.26,0.15-3.26l-0.24-1.62,1.13-.36-1.44-1L69,95.82l-2.41-.21C64.59,94.82,66.26,93.75,66.26,93.75Z"/><path class="cls-2" d="M49.08,96.82l-1.83-4.48,0.61-3.25a41,41,0,0,0-1.53-5c-1.42-6.91-13.73-5.19-13.73-5.19s-9.46.76-9.46,9.92a47.24,47.24,0,0,0,3.66,16.47l-2.5,5.47c1.74,0.35,8.3,1.89,12.59,5.48l2.88-7,5.64-.15c2.14-.15,1.07-3.81,1.07-3.81l0.31-1.07-0.31-.92,0.92-1.22-0.15-2.74,1.07-.76C50.45,98.24,49.08,96.82,49.08,96.82Z"/><path class="cls-2" d="M25.87,120.11s-8.85,5-4.43,13.32c0,0,1.69,5.94,13.67,9.06l3.47,2.35s8.43-7.19,10.29-12.53l-4.32-2.52s-5.06-12.24-16.47-10.38Z"/><path class="cls-3" d="M74.9,109.83s7-4.73,16.27,3.05A38,38,0,0,1,99,142.47l-1.53,14.34v22.58H69.82V152.54s-2.75-14.64-2.44-20.59c0,0,1.07-16.93,6.25-20.75Z"/><path class="cls-2" d="M80.6,110.44l-3.46.61-2.64.61,0.4-1.83s-1.42-1.63-3,.41l-2.24,3.46v3.46a38.1,38.1,0,0,1-.81,4.68l-5.9,8.95s-3.66,5.8-5.29,8c0,0-5.3-6.59-8.75-6.5-1.49,4.27-7.15,9.7-9.38,11.72,3.15,1.86,12,6.72,18.43,6.65l5.64-.28,10.12-23.09s1.22-3.86,2.64-4.27l4.27-1.63S86.29,114.31,80.6,110.44Z"/><path class="cls-3" d="M87.05,111.66c-4.27-2.13-6.46-1.22-6.46-1.22a25.79,25.79,0,0,1,7.52,4.73"/><path class="cls-3" d="M81.87,122.19s-5.34,2.74-4.88,11.74l3,10.22L80.8,148s10.83-.15,14.34-2.14L94.38,139s2.14-20.44-12.51-16.78"/><path class="cls-4" d="M94.65,146.07c-2.81,1.26-8.69,1.68-11.81,1.83a43.22,43.22,0,0,0,2.54,9.53L86,159.71s-1.83,13.57-1.22,19.68h7.78s2.75-15.41,2.75-19.52C95.29,159.86,95.4,150.17,94.65,146.07Z"/><path class="cls-5" d="M94.65,146.07c-2.81,1.26-8.69,1.68-11.81,1.83a43.22,43.22,0,0,0,2.54,9.53L86,159.71s-1.83,13.57-1.22,19.68h7.78s2.75-15.41,2.75-19.52C95.29,159.86,95.4,150.17,94.65,146.07Z"/><path class="cls-6" d="M87.22,99.49s11.52,1.43,20.23,5.1L106.13,109c-8.71-3.67-20.23-5.1-20.23-5.1L85.24,106l-4.46-5.39,7-3.15Z"/><text class="cls-7" transform="translate(27.89 44.84)">Grab by collars,<tspan x="12.68" y="8.5">and draw</tspan><tspan x="2.68" y="17">to interrogator</tspan></text><text class="cls-8" transform="translate(17.18 27.96)">Attention grasp</text></svg>