<svg id="Picture" xmlns="http://www.w3.org/2000/svg" viewBox="0 0 117.08 199.09"><defs><style>.cls-1{fill:#e6e7e8;opacity:0.5;}.cls-2,.cls-4{fill:#fff;stroke:#231f20;}.cls-2,.cls-3,.cls-4{stroke-width:0.2px;}.cls-3{fill:#39424c;stroke:#fff;}.cls-4{stroke-linejoin:round;}.cls-5{font-size:11px;fill:#942c61;}.cls-5,.cls-6{font-family:Arial;font-weight:700;}.cls-6{font-size:8px;fill:#231f20;}.cls-7{white-space:pre;}</style></defs><title>CIA_torture_7</title><path class="cls-1" d="M116.25,196.8a2.08,2.08,0,0,1-1.75,2.29H1.75A2.08,2.08,0,0,1,0,196.8V3.45A2.08,2.08,0,0,1,1.75,1.16H114.49a2.08,2.08,0,0,1,1.75,2.29V196.8Z"/><path class="cls-2" d="M68.78,121.9a9,9,0,0,0-7-8.41,5.86,5.86,0,0,0-5.35,1.41l-6.11,4.63L52.46,122a9.15,9.15,0,0,0,6.13,7l1.9,2.18,5.77-4.43A5.62,5.62,0,0,0,68.78,121.9Z"/><path class="cls-2" d="M62.06,127a5.6,5.6,0,0,1-7,5.64,9,9,0,0,1-7-8.42,5.6,5.6,0,0,1,7-5.64A9,9,0,0,1,62.06,127Z"/><path class="cls-2" d="M61.25,126.87a5,5,0,0,1-6.22,5,8,8,0,0,1-6.22-7.46,5,5,0,0,1,6.22-5A8,8,0,0,1,61.25,126.87Z"/><path class="cls-2" d="M56.12,117.83l1.45,0.39,0.5-.28v-2.68a3.1,3.1,0,0,1,1.45-2.73s2.34-1.62,2.62-.17v2.79l0.45-.22v-3a2.09,2.09,0,0,0-.95-1l-1.39-.44a4.4,4.4,0,0,0-4,3.9Z"/><path class="cls-2" d="M62.14,112.37c-0.14-.72-0.79-0.68-1.41-0.46v2.83l1.41,0.42v-2.79Z"/><path class="cls-2" d="M81.44,129.29l-13.72-8.62s-5.52.42-7.36-2.59l-1.17-1.92-1.12-.89,0.28-1.36,1,0.67,1.34,0.5s1.59,1.09.75-.67l-1.17-1.93-1.59-.75a2.27,2.27,0,0,0-1.84.75l-0.42.84s-1.17-.17-0.33-2.09a2.56,2.56,0,0,1,1.25-.5,1.86,1.86,0,0,1,1.59-.84s0.25-.58,1.34-0.17a1,1,0,0,1,1.25-.08l2.85,1.17L65.13,112,69,116s0.75,0.67,1.34,1.09l13.8,4.27L87,128.87Z"/><path class="cls-2" d="M87.88,164.26A28.76,28.76,0,0,0,87,178.47v6.36h29.11L116,177.47s2.68-9,.17-14.73Z"/><polygon class="cls-2" points="31.22 184.94 26.76 184.94 26.76 174.74 31.22 177.18 31.22 184.94"/><polygon class="cls-2" points="31.21 184.94 35.22 184.94 35.22 174.14 31.21 177.18 31.21 184.94"/><polygon class="cls-2" points="60.83 184.94 56.37 184.94 56.37 155.08 60.83 157.52 60.83 184.94"/><polygon class="cls-2" points="60.81 184.94 64.83 184.94 64.83 154.49 60.81 157.52 60.81 184.94"/><polygon class="cls-2" points="1.22 152.38 1.22 160.57 31.33 176.8 65.63 149.53 29.66 129.79 1.22 152.38"/><polygon class="cls-2" points="31.33 176.8 1.22 160.57 1.22 166.09 31.33 182.32 65.63 155.05 65.63 149.53 31.33 176.8"/><path class="cls-3" d="M34,129.45a64,64,0,0,0-12-5.39L18.75,123S7.81,119,5,119L1.79,117.4,1,117.25v7.45Z"/><path class="cls-3" d="M45.86,142.13a9.29,9.29,0,0,0-4.44-10.3l-7.77-3.17s-3.48,1.11-4.28,3.49Z"/><path class="cls-3" d="M13,123.27S35.24,128.5,41.57,135c0,0,7.61,6.34,4,12.52,0,0-1.11,5.86-14.58,14.74,0,0-7.92,4.28-18.07-1.59L1,153.23V121.37Z"/><path class="cls-3" d="M12.89,148L1.16,144.19v10s5.39,4.6,10.14,5.39Z"/><path class="cls-3" d="M19.39,149.42s10.46,4.59,5.23,13.15c0,0-4,3-6.65,1.74a47.09,47.09,0,0,1-9.67-4.75S5.44,150.69,11.94,147Z"/><path class="cls-3" d="M36.34,143.72s-6.66,3.17-1.9,10.15l3.17,1.43L39,157.5s5.23,10,17.12,5.86a11.62,11.62,0,0,0,6.18-10.46,9.17,9.17,0,0,0-5.07-7.76l-2.85-1.43-5.87-2.38s-3.64-2.38-5.23-.64l-1,1.59-1.59,2.38Z"/><path class="cls-2" d="M50.18,141.78s-8.59,1.11-9.59,12.94L39.48,161s-1.11,3.23-2.9,4l-3.46,1.56s6.47,2.56,8.59,4.35c0,0,1,.44,1.11,2.45l0.78,2s6.47-5.36,6.58-11.6c0,0-.34-15.39,9.81-16.62,0,0-4-4.46-8.14-5.46Z"/><path class="cls-2" d="M70.63,102.51l-0.56-4-1.81-2.1a33.75,33.75,0,0,1-1-4.29C65.38,86.49,75,82.57,75,82.57s7.18-3.42,11,3.21a39.58,39.58,0,0,1,4.27,13.48l4.12,2.92c-1.11,1-5.23,4.86-6.82,9.26l-5-3.85-4.16,2.26c-1.61.79-2.38-2.32-2.38-2.32l-0.67-.64-0.16-.8L74,105.6l-1-2.05-1.09-.1C70.23,104.12,70.63,102.51,70.63,102.51Z"/><path class="cls-2" d="M94.57,102S83.86,109.55,82,122.27c0,0-2.67,8.53,3,18.57l2.34,5.69,0.17,6.19,0.33,11.54s15.89,6.35,28.27-1.51L116,152l-0.17-13.22-0.17-11.2S112.63,104,96.41,102H94.57Z"/><polyline class="cls-2" points="105.61 184.66 105.61 181.82 107.62 179.31 111.3 177.97"/><path class="cls-2" d="M82.36,140.16v7.7a110.56,110.56,0,0,0-12.21,6.86l-3.51,2-3.51,1.84-4.18-1-3.62-1s-1.9.79-.39,1.63l2.84,0.67,1.17,1-2.18,2.5-2,.34-3.68.17s-2,.84-0.17,2.18h3.85l4.52-.5,4.52-.51,3.18-1.5s23.59-4.68,25.43-11.21c0,0,3.18-7.53,2.17-11.88Z"/><path class="cls-2" d="M87,117.1A14,14,0,0,0,80.24,129l0.89,12.29s9.25,3,14-.29l0.49-6.78s5.52-9.66-1.18-16A6.65,6.65,0,0,0,87,117.1"/><path class="cls-4" d="M55.76,119.67s-5.19,6.28-5.52,8.62a12.49,12.49,0,0,0-.92,5.94v2.84s-0.17,2.43.33,2.34l0.09,1.67s-0.42,2.35-.83,2.51a1.07,1.07,0,0,0,.41,1.92s0.92-.08-1.17,2.76c0,0-1.84,1.09-2.09,7.95,0,0,.17,2.84,1.25,1.26,0,0-.25,6.86.75,3.1l0.67-3.68s0.92,0.76,1.76-1.42c0,0,.25-4.19,1.84-5.77s0.75,0.34,2-.59c0,0,2.93-1.25,1-2.51,0,0-.09-0.42.92-0.75,0,0,1.25-1-.67-1.51,0,0-.84.58-0.84-2.76v-8.2A2.66,2.66,0,0,1,55.92,131a16.68,16.68,0,0,1,4.85-1.7,6.85,6.85,0,0,0-1-6.87A8.61,8.61,0,0,0,55.76,119.67Z"/><path class="cls-4" d="M56.83,142s2.13-.37,2.45.43c0,0,.32.91-0.59,0.75a8.17,8.17,0,0,0-2.77-.75Z"/><text class="cls-5" transform="translate(20.33 21.86)">W<tspan x="9.97" y="0">aterboarding</tspan></text><text class="cls-6" transform="translate(2.31 35.37)">Cloth covers nose and mouth <tspan x="13.55" y="8.5">as water poured over it</tspan></text><text class="cls-6" transform="translate(5.16 59.51)">“...produces the perception<tspan x="0" y="9">of ‘suffocation and </tspan><tspan x="0" y="18">incipient panic,</tspan><tspan x="58.23" y="18">’</tspan><tspan class="cls-7" x="60.01" y="18"> i.e.,</tspan><tspan x="0" y="27">the perception</tspan><tspan x="0" y="36">of drowning”</tspan></text></svg>