<svg id="Picture" xmlns="http://www.w3.org/2000/svg" viewBox="0 0 117.08 199.09"><defs><style>.cls-1{fill:#e6e7e8;opacity:0.5;}.cls-2{fill:#fff;stroke:#231f20;}.cls-2,.cls-3{stroke-width:0.2px;}.cls-3{fill:#39424c;stroke:#fff;}.cls-4{fill:#fed206;}.cls-5{font-size:11px;fill:#942c61;}.cls-5,.cls-6{font-family:Arial;font-weight:700;}.cls-6{font-size:8px;fill:#231f20;}</style></defs><title>CIA_torture_2</title><path class="cls-1" d="M116.25,196.8a2.08,2.08,0,0,1-1.75,2.29H1.75A2.08,2.08,0,0,1,0,196.8V3.45A2.08,2.08,0,0,1,1.75,1.16H114.49a2.08,2.08,0,0,1,1.75,2.29V196.8Z"/><path class="cls-2" d="M92.28,130.34l-1.43-8.56C89.15,111.07,80,106.21,80,106.21l0,0c-2.19-1.09-11.55-5.57-18.93-6.32L48,99.5s-11.43,1.79-18.12,8.22a22.7,22.7,0,0,0-10,15l-1.43,8.57s1.71,1.57,11.56,1.71l1.52-3a73.28,73.28,0,0,0,4.76,15.32L37.77,156H78.3V146s1.18-6.57,2.05-14.73L80.73,132C90.57,131.91,92.28,130.34,92.28,130.34Z"/><path class="cls-2" d="M59.46,78.28c-5-1.51-8.18,0-8.18,0A8.51,8.51,0,0,0,45.43,88l0.13,2.19s-1.3.55-.78,3l0.91,3.28s0.39,1.37,1,1.37l1,6a8.1,8.1,0,0,0,6.75,4.92h1.69A8.09,8.09,0,0,0,63,103.83l1-6c0.65,0,1-1.37,1-1.37l0.91-3.28c0.52-2.46-.78-3-0.78-3L65.29,88a8.5,8.5,0,0,0-5.84-9.7"/><path class="cls-2" d="M48,137.19s0.29-2.64-.21-3.64l-0.64-3.07,0.71-2.86s0.21-1.64-1-1.43l-0.93,2.71-0.28,1.14,0.21,2.78-0.43-2.28,0.22-2,0.79-2.71s1.07-2.07.21-2.71l-0.43-.29-0.5.86-0.18.48-0.39,1.09-0.13.26-0.17.33,1-2.73a0.59,0.59,0,0,0-.79-0.29l-1.14,1.93-0.5,1.07L43,126.7l-0.14,3.85,0.07,1.29,0.71,5.71,0.14,1s0.29,0.67-.29.71a19.11,19.11,0,0,1-3.85-.93l-3-1.43c-6-4-6.57-3.85-6.57-3.85-8-.12-10.62-1.17-11.33-1.56a92.23,92.23,0,0,0-.37,10c0.43,0.71,5.13,2.71,5.13,2.71,5.21,1.71,16.41.72,16.41,0.72l4.36-.72s4.07-.21,3.71-3.57v-3.43Z"/><path class="cls-2" d="M62.81,139.61c-0.36,3.36,3.71,3.57,3.71,3.57l4.35,0.71s11.2,1,16.42-.71c0,0,4.71-2,5.14-2.71a92.66,92.66,0,0,0-.38-10c-0.71.39-3.35,1.45-11.33,1.56,0,0-.57-0.14-6.57,3.85l-3,1.43a19,19,0,0,1-3.86.93c-0.57,0-.29-0.72-0.29-0.72l0.14-1,0.71-5.71L68,129.55l-0.14-3.85-0.43-.86-0.5-1.07-1.14-1.93a0.58,0.58,0,0,0-.78.28l1,2.73-0.16-.33-0.13-.26-0.39-1.09-0.18-.48-0.5-.86-0.43.28c-0.85.64,0.22,2.71,0.22,2.71l0.79,2.71,0.21,2L65,131.83,65.17,129l-0.29-1.14L64,125.2c-1.21-.22-1,1.43-1,1.43l0.71,2.85L63,132.55c-0.5,1-.21,3.64-0.21,3.64v3.42Z"/><path class="cls-3" d="M85.55,163.56a9.82,9.82,0,0,0-6-9.1l-3.85-1.6c-2.33-1.24-9.8-2.37-12.22-2.89v1.39c-1.77,4.5-7.06,4.39-7.06,4.39-6.83-.27-8.37-4.58-8.37-4.58V150c-2.56.6-7.31,1.73-9.47,2.88l-6.07,1.6a9.82,9.82,0,0,0-6,9.1l0.32,5.78L26.64,171h58.8l-0.21-1.71Z"/><path class="cls-3" d="M60.33,117.35c-5.46-1.57-9,0-9,0s-7.56,2-6.42,10.13L45,129.76s-1.43.57-.86,3.14l1,3.43s0.43,1.43,1.14,1.43L47.47,144a8.81,8.81,0,0,0,7.42,5.14h1.86A8.8,8.8,0,0,0,64.18,144l1.14-6.28c0.71,0,1.14-1.43,1.14-1.43l1-3.43c0.57-2.57-.86-3.14-0.86-3.14l0.14-2.28c1.14-8.14-6.42-10.13-6.42-10.13"/><path class="cls-3" d="M56.76,149.18H54.89a8.94,8.94,0,0,1-6.84-4v6s1.54,4.32,8.37,4.58c0,0,5.29.11,7.06-4.39v-6A8.94,8.94,0,0,1,56.76,149.18Z"/><polyline class="cls-2" points="44.82 125.86 44.32 127.19 44.03 128.5 44.25 132.02"/><polyline class="cls-2" points="65.96 124.86 66.44 126.31 66.75 127.48 66.66 130.34"/><polygon class="cls-4" points="83.47 125.62 73.4 125.62 73.4 123.97 68.69 127.88 73.4 131.77 73.4 130.13 83.47 130.13 83.47 125.62"/><polygon class="cls-4" points="27.6 125.62 37.66 125.62 37.66 123.97 42.37 127.88 37.66 131.77 37.66 130.13 27.6 130.13 27.6 125.62"/><text class="cls-5" transform="translate(26.65 22.8)">Facial hold</text><text class="cls-6" transform="translate(25.98 42.42)">Palms on either<tspan x="7.78" y="8.5">side of face</tspan><tspan x="6.01" y="17">to hold head</tspan><tspan x="12.23" y="25.5">immobile</tspan></text></svg>