<svg id="Picture" xmlns="http://www.w3.org/2000/svg" viewBox="0 0 117.08 199.09"><defs><style>.cls-1{fill:#e6e7e8;opacity:0.5;}.cls-2{fill:#fff;stroke:#231f20;}.cls-2,.cls-3,.cls-4{stroke-width:0.2px;}.cls-3{fill:#39424c;}.cls-3,.cls-4{stroke:#fff;}.cls-4,.cls-7{fill:#231f20;}.cls-5{fill:#fed206;}.cls-6{font-size:11px;fill:#942c61;}.cls-6,.cls-7{font-family:Arial;font-weight:700;}.cls-7{font-size:8px;}</style></defs><title>CIA_torture_5</title><path class="cls-1" d="M116.25,196.8a2.08,2.08,0,0,1-1.75,2.29H1.75A2.08,2.08,0,0,1,0,196.8V3.45A2.08,2.08,0,0,1,1.75,1.16H114.49a2.08,2.08,0,0,1,1.75,2.29V196.8Z"/><polygon class="cls-2" points="104.7 187.2 66.39 170.17 66.39 77.44 104.7 94.46 104.7 187.2"/><polygon class="cls-2" points="104.7 94.46 104.7 187.2 106.95 185.65 106.95 92.91 106.87 92.87 104.67 94.45 104.7 94.46"/><polygon class="cls-2" points="104.67 94.45 106.87 92.87 106.95 92.91 68.64 75.89 66.39 77.44 104.7 94.46 104.67 94.45"/><path class="cls-3" d="M26,177.28s-5.49,3.95-4.08,5.35c0,0,1.13,2.4,4.79,1.69l1.69-1.55h2.25s5.21-.85,4.23-2.39l-1.27-1.69Z"/><path class="cls-3" d="M38.31,189.53s-2.39,2.53-1.27,4.09a8.15,8.15,0,0,0,4.65,1.13L45.07,195h2.82s4.37,0.56,3.66-1.55a3.46,3.46,0,0,0-2.25-2,3.48,3.48,0,1,1-.56-0.14l-1.83-.14-2.54-1.83Z"/><path class="cls-3" d="M74.82,116.51s3.1-2.25,4.93-2.11c0,0,2.11-2.4,8.59-5.35l1.83-.84,0.25-2.08,1.16-2.85s0.84,0.32.32,1.58l1.37-2.22L95.39,101a1,1,0,0,1-.32,1.59l1.69-1.27s1,0.53-.21,1.69c0,0,2-.85,1.06.53L96,104.74l1.58,0.74s0.42,0.63-.42.74l-1.37-.53s-1.06,2.64-2.75,3.48l-1.27.21s-4.23,5.28-8.66,7.82a11.3,11.3,0,0,1-7.08,5.07Z"/><path class="cls-3" d="M74.12,103.76l-1.83.84c-6.48,3-8.59,5.35-8.59,5.35-1.83-.14-4.93,2.11-4.93,2.11L60,117.84a11.31,11.31,0,0,0,7.08-5.07c4.44-2.53,8.66-7.82,8.66-7.82a4.05,4.05,0,0,0,3.06-1.9l1.69-1.69s0-1.27-.95-0.63l-1.06.42,0.21-1.58,1.69-3s-0.21-.74-1.16.32c0,0,1.37-1.69-.11-1.69l-0.84.84L78,96.5s0.53-1.37-.53-0.85l-1.06,1.59-0.74,2.11L75,101.89A2.73,2.73,0,0,1,74.12,103.76Z"/><path class="cls-3" d="M62.06,94.51s-5.09-.68-2.57,12L58,111l6.45,2.66,1.12-4.06L67.07,110a2.53,2.53,0,0,0,1.82-1.68L70,104l-0.14-2.52,0.56-1.12,0.1-1.77s1.26-2.39-3.65-4.05C66.88,94.51,62.49,93.28,62.06,94.51Z"/><path class="cls-3" d="M58.74,110.3s7.19,1.4,9.45,7.32c0,0,2.26,5.21,0,10L64,134.32l-3,7.18a12.27,12.27,0,0,1-12.7-1.89s-2.68-2.25-2.12-4.5l2.67-7.89s1-3.52,1-3.94-1.56-11,5.33-13.25A6.36,6.36,0,0,1,58.74,110.3Z"/><path class="cls-3" d="M68.06,116.79s-7.61,4.65-2.82,10.28c0,0,3,1.27,5.07-.7l4.51-2.82,2.11-1s1.27-4.93-2.25-6.76l-2.39,1.27-1.41.14Z"/><path class="cls-3" d="M48.36,139.61s-2.24-1.88-2.19-3.93a14.43,14.43,0,0,0-3.85,10.19l0.56,2.4-0.7,2.81-1.69,4.37L38.55,161l-6.79,7.36-6.48,7.32s-1.55,2.68,2.78,4.37c0,0,.85.84,4.65,0.42l4-3.94,9-8.73s3.66-4.79,4.22-7.61l1.69,9.58-0.42,2.53-13,15.49s-2.15,4.54,6.73,4.54a3.7,3.7,0,0,0,2.22-2.32l12.25-13.28,1.48-4.22-0.07-6.13,0.84-14.37s0.14-7.32-.56-10.56A12.27,12.27,0,0,1,48.36,139.61Z"/><polyline class="cls-4" points="47.32 150.69 47.85 152.59 48.27 154.6 49.12 157.56 49.93 160.24"/><polyline class="cls-4" points="45 149.67 47.74 150.94 50.6 152.53"/><polygon class="cls-5" points="36.39 126.04 43.08 121.88 42.4 120.78 47.14 121.43 45.62 125.97 44.94 124.87 38.26 129.03 36.39 126.04"/><text class="cls-6" transform="translate(19.82 21.35)">W<tspan x="9.97" y="0">all standing</tspan></text><text class="cls-7" transform="translate(24.53 35.67)">Designed to make<tspan x="4.9" y="8.5">fingers support</tspan><tspan x="10.9" y="17">body weight</tspan><tspan x="1.79" y="25.5">“not permitted to</tspan><tspan x="-3.77" y="34">move or reposition”</tspan></text></svg>