<svg id="Picture" xmlns="http://www.w3.org/2000/svg" xmlns:xlink="http://www.w3.org/1999/xlink" viewBox="0 0 117.08 199.09"><defs><style>.cls-1{fill:#e6e7e8;opacity:0.5;}.cls-15,.cls-16,.cls-2,.cls-3,.cls-5,.cls-8{fill:#fff;}.cls-11,.cls-15,.cls-17,.cls-2,.cls-4{stroke:#231f20;}.cls-15,.cls-16,.cls-17,.cls-2,.cls-3,.cls-4,.cls-6,.cls-7{stroke-width:0.2px;}.cls-15,.cls-16,.cls-3,.cls-4{stroke-linejoin:round;}.cls-3{stroke:url(#linear-gradient);}.cls-11,.cls-17,.cls-4,.cls-9{fill:none;}.cls-5{stroke:#abadb0;}.cls-11,.cls-5,.cls-9{stroke-width:0.5px;}.cls-6{fill:#39424c;}.cls-6,.cls-7,.cls-9{stroke:#fff;}.cls-18,.cls-20,.cls-7{fill:#231f20;}.cls-10{fill:#cad7db;}.cls-11{stroke-miterlimit:3.86;}.cls-12{fill:#fed206;}.cls-13{fill:#009f4d;}.cls-14{fill:#f04c23;}.cls-16{stroke:url(#linear-gradient-2);}.cls-19{font-size:11px;fill:#942c61;}.cls-19,.cls-20{font-family:Arial;}.cls-19,.cls-21{font-weight:700;}.cls-20{font-size:8px;}</style><linearGradient id="linear-gradient" x1="7.38" y1="78" x2="49.22" y2="78" gradientUnits="userSpaceOnUse"><stop offset="0" stop-color="#fff"/><stop offset="1"/></linearGradient><linearGradient id="linear-gradient-2" x1="63.94" y1="89.54" x2="105.77" y2="89.54" xlink:href="#linear-gradient"/></defs><title>CIA_torture_8</title><path class="cls-1" d="M116.25,196.8a2.08,2.08,0,0,1-1.75,2.29H1.75A2.08,2.08,0,0,1,0,196.8V3.45A2.08,2.08,0,0,1,1.75,1.16H114.49a2.08,2.08,0,0,1,1.75,2.29V196.8Z"/><polyline class="cls-2" points="7.54 79.24 27.04 67.28 49.12 76.71 49.12 49.45 26.73 39.74 7.48 51.21 7.48 79.24"/><polygon class="cls-3" points="7.48 79.27 26.56 66.7 49.12 76.73 30.04 89.29 7.48 79.27"/><polygon class="cls-4" points="30.04 89.27 7.48 79.24 7.48 51.21 30.04 61.24 30.04 89.27"/><line class="cls-5" x1="26.56" y1="38.65" x2="26.56" y2="66.7"/><path class="cls-6" d="M24.06,79.55a19.68,19.68,0,0,0-1.52,2l-1.24.28s-1.73.55-1,1.24a3.37,3.37,0,0,0,2.55.9,4.37,4.37,0,0,0,2-1l1-.55s1.52,0.14,1.31-1.17a2.43,2.43,0,0,1-.41-2Z"/><path class="cls-6" d="M18.67,76.09a20.28,20.28,0,0,0-1.52,2l-1.24.28s-1.73.55-1,1.24a3.37,3.37,0,0,0,2.55.9,4.36,4.36,0,0,0,2-1l1-.55s1.52,0.14,1.31-1.18a2.43,2.43,0,0,1-.42-2Z"/><path class="cls-6" d="M28.46,64.57a15.06,15.06,0,0,1-2.81-1.33l1.18,1-0.91-.73-1.43-1.14-1.79-.76c-2.28-.41-3.38,2-3.38,2L18,71.44l-0.62,5.11a4.26,4.26,0,0,0,4.65,0l0.87-6.08a9.25,9.25,0,0,0,6.56,1.86c3.72-.5,3.53-4.46,3.45-5.26C29.57,66.37,28.87,65.08,28.46,64.57Z"/><path class="cls-6" d="M28.39,52s-2.24,1.81-.52,5.57l0.24,2.93,0.36,4.09s2.7,3.66,9.44,2.61c0,0,3.63-8.53,1.62-12,0,0-.74-2.23-5.67-3.59,0,0-4-.72-5.47.34"/><path class="cls-6" d="M34.77,50.8l1,2.67a2.2,2.2,0,0,1-2.61,1.73,1.93,1.93,0,0,1-1.8-1.83Z"/><path class="cls-6" d="M30.45,45.14s-3.22.89-3,3.89A8.37,8.37,0,0,0,28.25,51l0.3,0.33a1,1,0,0,0,.65,1.08l1.35,1a4.13,4.13,0,0,0,3.06.23s1.6-1.41,1.15-3c0,0,.08-5.46-4.14-5.46H30.45Z"/><path class="cls-6" d="M37.9,67.18s1.63,7.88-2.51,8.44a9.25,9.25,0,0,1-6.56-1.87L28,79.82a4.26,4.26,0,0,1-4.65,0l0.62-5.11,1.31-7.87s1.1-2.42,3.38-2l1.8,0.76,1.43,1.14,0.91,0.73h0l-1.18-1s4.33,1.49,6.32.67"/><path class="cls-6" d="M28.83,73.75l0.42-2.21a4.76,4.76,0,0,0,1.29-1.24"/><path class="cls-6" d="M35.46,61.25L34.28,62.9l-1,.83a27.55,27.55,0,0,0-6.63-1.31l-2-.35H23.51l1.17,0.74,1.43,1.14,3.47,1.79A18.53,18.53,0,0,0,33.94,67s3.31-1.31,4.28-3.94a3.2,3.2,0,0,0-2.76-1.87"/><path class="cls-6" d="M38.56,55.72s-2.76-.14-2.69,3.73L35,61.52s2.83,0.55,3.18,2.28a16.79,16.79,0,0,0,2.35-4.35s0.76-2.7-1.17-3.66Z"/><path class="cls-6" d="M27.86,57.54c-1.35-2.95-.26-4.69.27-5.3A4,4,0,0,0,26,55.79l-0.69,1-0.46.55a4.81,4.81,0,0,1,2.07,2.26L28,58.73Z"/><path class="cls-6" d="M25.14,57.26A7.05,7.05,0,0,0,23.3,59.1l-0.92,1.33s-1.06,1.15.23,1.57c0,0,2.07,2.07,7,3.36a2,2,0,0,0,1.2,1.38l0.37,0.6,0.14,0.92s0.18,0.41.41,0l0-.69,0.19,1L32,69.1s0.41,0.23.41-.18l0.18,0.51s0.65,0.23.51-.37c0,0,.46.32,0.46-0.14l-0.18-1.15,0.32,0.55,0.23,0.41s0.41,0.28.28-.37l-0.78-1.75L34,66.79a0.68,0.68,0,0,0,.64-0.28L33.43,66l-0.92-.55-0.83-.6a5.41,5.41,0,0,0-1.43-1l-4.46-2.62a2.4,2.4,0,0,0,1.11-1.56A2.67,2.67,0,0,0,25.14,57.26Z"/><path class="cls-7" d="M22.89,70.48l0.28-1.84a4.69,4.69,0,0,0,1-2.55"/><path class="cls-8" d="M26.56,38.65L7.48,51.21,30,61.24,49.12,48.68Zm3.32,21.5L9.48,51.09,26.72,39.74,47.11,48.8Z"/><path class="cls-4" d="M26.56,38.65L7.48,51.21,30,61.24,49.12,48.68Zm3.32,21.5L9.48,51.09,26.72,39.74,47.11,48.8Z"/><polygon class="cls-4" points="30.04 89.27 49.12 76.71 49.12 48.68 30.04 61.24 30.04 89.27"/><line class="cls-9" x1="30.04" y1="61.24" x2="30.04" y2="74.22"/><circle class="cls-10" cx="49.02" cy="51.7" r="6.61"/><circle class="cls-11" cx="49.02" cy="51.7" r="6.61"/><circle class="cls-12" cx="49.02" cy="51.7" r="5.65"/><polygon class="cls-13" points="42.97 46.53 43.84 45.65 44.44 46.24 43.56 47.12 42.97 46.53 42.97 46.53"/><polygon class="cls-11" points="42.97 46.53 43.84 45.65 44.44 46.24 43.56 47.12 42.97 46.53 42.97 46.53"/><rect class="cls-10" x="43.82" y="46.62" width="0.75" height="0.4" transform="translate(-20.16 44.75) rotate(-44.81)"/><rect class="cls-11" x="43.82" y="46.62" width="0.75" height="0.4" transform="translate(-20.16 44.75) rotate(-44.81)"/><polygon class="cls-14" points="54.96 46.53 54.09 45.65 53.49 46.24 54.37 47.12 54.96 46.53 54.96 46.53"/><polygon class="cls-11" points="54.96 46.53 54.09 45.65 53.49 46.24 54.37 47.12 54.96 46.53 54.96 46.53"/><polygon class="cls-10" points="53.64 46.41 53.36 46.7 53.89 47.23 54.17 46.95 53.64 46.41"/><polygon class="cls-11" points="53.64 46.41 53.36 46.7 53.89 47.23 54.17 46.95 53.64 46.41"/><path class="cls-8" d="M43.37,51.7a5.65,5.65,0,0,1,5.58-5.65v5.7l5-2.84A5.65,5.65,0,1,1,43.37,51.7Z"/><line class="cls-11" x1="48.94" y1="45.97" x2="48.94" y2="46.94"/><line class="cls-11" x1="48.94" y1="56.46" x2="48.94" y2="57.43"/><line class="cls-8" x1="46.07" y1="46.74" x2="46.56" y2="47.58"/><line class="cls-11" x1="46.07" y1="46.74" x2="46.56" y2="47.58"/><line class="cls-8" x1="51.32" y1="55.83" x2="51.8" y2="56.67"/><line class="cls-11" x1="51.32" y1="55.83" x2="51.8" y2="56.67"/><line class="cls-8" x1="43.97" y1="48.84" x2="44.81" y2="49.32"/><line class="cls-11" x1="43.97" y1="48.84" x2="44.81" y2="49.32"/><line class="cls-8" x1="53.06" y1="54.08" x2="53.9" y2="54.57"/><line class="cls-11" x1="53.06" y1="54.08" x2="53.9" y2="54.57"/><line class="cls-11" x1="43.21" y1="51.7" x2="44.17" y2="51.7"/><line class="cls-11" x1="53.7" y1="51.7" x2="54.67" y2="51.7"/><line class="cls-8" x1="43.97" y1="54.57" x2="44.81" y2="54.08"/><line class="cls-11" x1="43.97" y1="54.57" x2="44.81" y2="54.08"/><line class="cls-8" x1="53.06" y1="49.32" x2="53.9" y2="48.84"/><line class="cls-11" x1="53.06" y1="49.32" x2="53.9" y2="48.84"/><line class="cls-8" x1="46.07" y1="56.67" x2="46.56" y2="55.83"/><line class="cls-11" x1="46.07" y1="56.67" x2="46.56" y2="55.83"/><line class="cls-8" x1="51.32" y1="47.58" x2="51.8" y2="46.74"/><line class="cls-11" x1="51.32" y1="47.58" x2="51.8" y2="46.74"/><polygon class="cls-15" points="64.03 91.08 84.51 78.53 105.67 88.54 105.67 42.43 83.28 33.49 64.03 44.96 64.03 91.08"/><polygon class="cls-16" points="64.03 91.1 83.5 77.95 105.67 88.56 86.59 101.12 64.03 91.1"/><polygon class="cls-4" points="86.59 101.1 64.03 91.08 64.03 44.96 86.59 54.99 86.59 101.1"/><line class="cls-5" x1="83.11" y1="32.41" x2="83.11" y2="78.54"/><polygon class="cls-4" points="86.59 101.1 105.67 88.54 105.67 42.43 86.59 54.99 86.59 101.1"/><path class="cls-6" d="M78.68,54.79a19.32,19.32,0,0,0-.46,4.6L78.1,60a65,65,0,0,0,.33,7.38L78,69.05l0.21,1s0.42,0.54.29-.46L78.64,69l0.25,1.16,0.62,1.12,1.66-.42L82,57.4Z"/><path class="cls-6" d="M81,46a5.11,5.11,0,0,0-2.26,3.89c0,0.06,0,.12,0,0.17-0.29,3-.08,3.28-0.08,3.28l-0.25,1.24s0.37,1.53,2.7,1.45Z"/><path class="cls-6" d="M85.63,90.35a4.29,4.29,0,0,0,.19,2.74L86.25,94s-0.12,2.36,1.8,2.49c0,0,2.49.37,1.87-2.42L89.3,92.4l-0.12-2.3Z"/><path class="cls-6" d="M80.34,88.67l-0.81,1.18-1.12.81s-1.93,1.49.68,2.36A3.53,3.53,0,0,0,81.65,92l1.18-.81,0.81-.37s0.81-.69.31-2.49Z"/><path class="cls-6" d="M83.08,45.19s3.69-.73,7.92,3.17a5.75,5.75,0,0,1,.91,3.48l-1.8,9.83L90,64.53a10.26,10.26,0,0,1-8.65.37,2.82,2.82,0,0,1-1.74-2.49V59.06L79.6,54.64a19,19,0,0,1,0-5.54s0.37-3.61,2.8-3.73Z"/><path class="cls-6" d="M82.19,37.68s-1.66.58-1.41,3.48l0.33,3.15s0.33,1.74,1,1.74l1,0.19,0.65,2.06a2.89,2.89,0,0,0,3.87-1l-0.5-1.91a3.77,3.77,0,0,1,0-2.49S88.72,37.4,85,37a5.53,5.53,0,0,0-2.8.72"/><path class="cls-6" d="M90,64.53a10.26,10.26,0,0,1-8.65.37A2.87,2.87,0,0,1,79.73,63h0l-0.37,1.37a75.26,75.26,0,0,0-.06,8.46L79.1,77.22l0.19,3.54,0.56,7.53s-0.12,1.87,2.8,1.8l0.87-.19a2.71,2.71,0,0,0,.68-1.24l0.31-10.95,0.06-2L85.07,81v5.79l0.25,3.17s0,1.74,2.3,1.8a2,2,0,0,0,2.12-1.62L89.49,79.83l0.31-5L90,71.37s1.07-4.41,0-6.93v0.09Z"/><path class="cls-6" d="M90.42,48.11a3.71,3.71,0,0,0-2.57,4.4l1,3.73,0.25,1.08s2.74,1.16,3.57-1.33l-0.25-2.65s-0.25-4.48-1.41-5Z"/><path class="cls-6" d="M89.49,57.45l0.25,1.86,0.06,1.24s-0.56,5-.87,7.59l-0.75,1.31a2.91,2.91,0,0,0,.06,1.93l0.31-.56-0.37.87-0.25.81s0.25,0.31.69-.25a0.61,0.61,0,0,0,.87-0.37s0.31,0.19.56-.5l0.5-.81a12.26,12.26,0,0,0,.31-2.36l-0.06-.75,1-2.8A36.53,36.53,0,0,0,92.6,60s-0.1-2-.2-3.44A2.46,2.46,0,0,1,89.49,57.45Z"/><path class="cls-7" d="M84.57,75.73L84,72.08l-0.25-1.33a3.07,3.07,0,0,1-.91-1.91"/><path class="cls-8" d="M83.11,32.41L64,45,86.59,55l19.08-12.56Zm3.31,21.5L66,44.84,83.28,33.49l20.39,9.06Z"/><path class="cls-17" d="M83.11,32.41L64,45,86.59,55l19.08-12.56Zm3.31,21.5L66,44.84,83.28,33.49l20.39,9.06Z"/><line class="cls-9" x1="86.52" y1="95.68" x2="86.52" y2="54.99"/><circle class="cls-10" cx="106.79" cy="45.45" r="6.61"/><circle class="cls-11" cx="106.79" cy="45.45" r="6.61"/><circle class="cls-12" cx="106.79" cy="45.45" r="5.65"/><polygon class="cls-13" points="100.74 40.28 101.61 39.41 102.2 40 101.33 40.87 100.74 40.28 100.74 40.28"/><polygon class="cls-11" points="100.74 40.28 101.61 39.41 102.2 40 101.33 40.87 100.74 40.28 100.74 40.28"/><rect class="cls-10" x="101.59" y="40.38" width="0.75" height="0.4" transform="translate(1.17 83.98) rotate(-45)"/><rect class="cls-11" x="101.59" y="40.38" width="0.75" height="0.4" transform="translate(1.17 83.98) rotate(-45)"/><polygon class="cls-14" points="112.72 40.28 111.85 39.41 111.26 40 112.13 40.87 112.72 40.28 112.72 40.28"/><polygon class="cls-11" points="112.72 40.28 111.85 39.41 111.26 40 112.13 40.87 112.72 40.28 112.72 40.28"/><rect class="cls-10" x="111.33" y="40.2" width="0.4" height="0.75" transform="translate(3.8 90.36) rotate(-44.8)"/><rect class="cls-11" x="111.33" y="40.2" width="0.4" height="0.75" transform="translate(3.8 90.36) rotate(-44.8)"/><path class="cls-8" d="M101.14,45.45a5.65,5.65,0,0,1,5.58-5.65v5.7l5-2.84A5.65,5.65,0,1,1,101.14,45.45Z"/><line class="cls-11" x1="106.7" y1="39.73" x2="106.7" y2="40.69"/><line class="cls-11" x1="106.7" y1="50.22" x2="106.7" y2="51.18"/><line class="cls-8" x1="103.84" y1="40.49" x2="104.32" y2="41.33"/><line class="cls-11" x1="103.84" y1="40.49" x2="104.32" y2="41.33"/><line class="cls-8" x1="109.08" y1="49.58" x2="109.57" y2="50.42"/><line class="cls-11" x1="109.08" y1="49.58" x2="109.57" y2="50.42"/><line class="cls-8" x1="101.74" y1="42.59" x2="102.58" y2="43.08"/><line class="cls-11" x1="101.74" y1="42.59" x2="102.58" y2="43.08"/><line class="cls-8" x1="110.82" y1="47.84" x2="111.66" y2="48.32"/><line class="cls-11" x1="110.82" y1="47.84" x2="111.66" y2="48.32"/><line class="cls-11" x1="100.97" y1="45.45" x2="101.94" y2="45.45"/><line class="cls-11" x1="111.46" y1="45.45" x2="112.43" y2="45.45"/><line class="cls-8" x1="101.74" y1="48.32" x2="102.58" y2="47.84"/><line class="cls-11" x1="101.74" y1="48.32" x2="102.58" y2="47.84"/><line class="cls-8" x1="110.82" y1="43.08" x2="111.66" y2="42.59"/><line class="cls-11" x1="110.82" y1="43.08" x2="111.66" y2="42.59"/><line class="cls-8" x1="103.84" y1="50.42" x2="104.32" y2="49.58"/><line class="cls-11" x1="103.84" y1="50.42" x2="104.32" y2="49.58"/><line class="cls-8" x1="109.08" y1="41.33" x2="109.57" y2="40.49"/><line class="cls-11" x1="109.08" y1="41.33" x2="109.57" y2="40.49"/><polygon class="cls-2" points="9.91 151.45 9.89 184.28 33.69 170.29 59.01 181.29 59.01 148.23 32.4 136.4 9.91 151.45"/><polygon class="cls-5" points="9.89 184.31 32.4 169.49 59.01 181.32 36.51 196.14 9.89 184.31"/><polygon class="cls-17" points="36.51 196.11 9.89 184.28 9.89 151.21 36.51 163.04 36.51 196.11"/><line class="cls-5" x1="32.4" y1="136.39" x2="32.4" y2="169.49"/><path class="cls-6" d="M29.46,184.64A23.45,23.45,0,0,0,27.66,187l-1.47.32s-2,.65-1.22,1.46a4,4,0,0,0,3,1.06,5.16,5.16,0,0,0,2.36-1.14l1.22-.65s1.79,0.16,1.55-1.39a2.86,2.86,0,0,1-.49-2.36Z"/><path class="cls-6" d="M23.1,180.57a23.7,23.7,0,0,0-1.79,2.36l-1.47.32s-2,.65-1.22,1.47a4,4,0,0,0,3,1.06A5.15,5.15,0,0,0,24,184.64l1.22-.65s1.79,0.16,1.55-1.39a2.87,2.87,0,0,1-.49-2.36Z"/><path class="cls-6" d="M34.64,167a17.72,17.72,0,0,1-3.32-1.57l1.39,1.13-1.08-.86-1.69-1.34-2.12-.9c-2.69-.49-4,2.36-4,2.36l-1.55,9.29-0.73,6a5,5,0,0,0,5.49,0l1-7.17a10.91,10.91,0,0,0,7.74,2.2c4.4-.59,4.16-5.26,4.07-6.2C36,169.09,35.13,167.57,34.64,167Z"/><path class="cls-6" d="M34.56,152.11s-2.64,2.13-.62,6.57l0.29,3.46L34.64,167s3.18,4.32,11.14,3.08c0,0,4.28-10.06,1.91-14.11,0,0-.87-2.63-6.68-4.24,0,0-4.66-.86-6.45.41"/><path class="cls-6" d="M42.09,150.72l1.12,3.15a2.6,2.6,0,0,1-3.08,2A2.28,2.28,0,0,1,38,153.77Z"/><path class="cls-6" d="M37,144.05s-3.8,1.06-3.5,4.59a9.76,9.76,0,0,0,.91,2.3l0.35,0.39a1.13,1.13,0,0,0,.77,1.27l1.6,1.22a4.87,4.87,0,0,0,3.61.28s1.89-1.66,1.36-3.59c0,0,.09-6.44-4.89-6.44H37Z"/><path class="cls-6" d="M45.78,170s1.93,9.3-3,10a10.9,10.9,0,0,1-7.74-2.2L34,185a5,5,0,0,1-5.49,0l0.73-6,1.55-9.29s1.3-2.85,4-2.36l2.12,0.9,1.69,1.34,1.08,0.86h0l-1.39-1.13s5.11,1.76,7.45.8"/><path class="cls-6" d="M35.08,177.8l0.49-2.6a5.58,5.58,0,0,0,1.52-1.47"/><path class="cls-6" d="M42.9,163l-1.39,2-1.14,1a32.47,32.47,0,0,0-7.82-1.55L30.19,164H28.8l1.39,0.87,1.69,1.34L36,168.35s3.67,1.55,5.13,1.55c0,0,3.91-1.55,5.05-4.64,0,0-.57-1.79-3.26-2.2"/><path class="cls-6" d="M46.56,156.53s-3.26-.16-3.18,4.4l-1.06,2.45s3.34,0.65,3.75,2.69a19.74,19.74,0,0,0,2.77-5.13s0.9-3.18-1.39-4.32Z"/><path class="cls-6" d="M33.94,158.68c-1.59-3.48-.31-5.53.32-6.26-0.62.36-2.73,1.78-2.55,4.2l-0.81,1.19-0.54.65a5.66,5.66,0,0,1,2.45,2.66l1.26-1Z"/><path class="cls-6" d="M30.73,158.35a8.33,8.33,0,0,0-2.17,2.17l-1.09,1.57s-1.25,1.36.27,1.85c0,0,2.44,2.44,8.31,4a2.31,2.31,0,0,0,1.41,1.63l0.43,0.71,0.16,1.09s0.22,0.49.49,0l-0.06-.82,0.22,1.14,0.11,0.65s0.49,0.27.49-.22l0.22,0.6s0.76,0.27.6-.44c0,0,.54.38,0.54-0.16l-0.22-1.36,0.38,0.65,0.27,0.49s0.49,0.32.33-.43l-0.92-2.06,0.71,0.22a0.81,0.81,0,0,0,.76-0.33l-1.47-.65L39.42,168l-1-.71a6.4,6.4,0,0,0-1.68-1.2L31.49,163a2.82,2.82,0,0,0,1.3-1.85A3.15,3.15,0,0,0,30.73,158.35Z"/><path class="cls-7" d="M28.07,173.94l0.33-2.17a5.55,5.55,0,0,0,1.22-3"/><path class="cls-8" d="M32.4,136.39L9.89,151.21,36.51,163,59,148.23Zm3.91,25.37L12.25,151.07,32.6,137.68l24.06,10.69Z"/><path class="cls-17" d="M32.4,136.39L9.89,151.21,36.51,163,59,148.23Zm3.91,25.37L12.25,151.07,32.6,137.68l24.06,10.69Z"/><polygon class="cls-17" points="36.51 196.11 59.01 181.29 59.01 148.23 36.51 163.04 36.51 196.11"/><line class="cls-9" x1="36.51" y1="163.04" x2="36.51" y2="178.36"/><ellipse class="cls-18" cx="13.87" cy="168.26" rx="0.37" ry="0.42"/><ellipse class="cls-18" cx="13.63" cy="169.76" rx="0.76" ry="1.11"/><ellipse class="cls-18" cx="12.87" cy="169.75" rx="1.09" ry="0.29" transform="translate(-141.75 98.52) rotate(-60.93)"/><polyline class="cls-17" points="14.25 169.22 14.58 169.12 14.79 169.14 14.9 169.19"/><polyline class="cls-17" points="14.27 169.67 14.58 169.71 14.8 169.81"/><polyline class="cls-17" points="14.3 169.97 14.62 170.09 14.75 170.27"/><polygon class="cls-12" points="4.1 166.08 9.49 167.01 9.64 166.13 11.8 168.65 8.92 170.31 9.07 169.42 3.68 168.49 4.1 166.08"/><text class="cls-19" transform="translate(33.41 14.33)">Cramped <tspan x="-7.33" y="11">confinement</tspan></text><text class="cls-20" transform="translate(7 100.76)"><tspan class="cls-21">Small:</tspan><tspan x="0" y="8.5">sitting onl</tspan><tspan x="33.8" y="8.5">y</tspan><tspan x="37.2" y="8.5">,</tspan><tspan x="0" y="17">max </tspan><tspan x="0" y="25.5">2 hours</tspan></text><text class="cls-20" transform="translate(56.78 109.26)"><tspan class="cls-21">Large: </tspan><tspan x="0" y="8.5">can stand or sit, </tspan><tspan x="0" y="17">max 18 hours</tspan></text><text class="cls-20" transform="translate(66.04 154.36)"><tspan class="cls-21">W<tspan x="7.48" y="0">ith insect: </tspan></tspan><tspan x="0" y="8.5">for detainee</tspan><tspan x="0" y="17">known to </tspan><tspan x="0" y="25.5">have phobia</tspan></text></svg>