<svg id="Picture" xmlns="http://www.w3.org/2000/svg" viewBox="0 0 117.08 199.09"><defs><style>.cls-1{fill:#e6e7e8;opacity:0.5;}.cls-2{fill:#39424c;stroke:#fff;stroke-width:0.2px;}.cls-3{font-size:11px;fill:#942c61;}.cls-3,.cls-4{font-family:Arial;font-weight:700;}.cls-4{font-size:8px;fill:#231f20;}</style></defs><title>CIA_torture_6</title><path class="cls-1" d="M116.25,196.8a2.08,2.08,0,0,1-1.75,2.29H1.75A2.08,2.08,0,0,1,0,196.8V3.45A2.08,2.08,0,0,1,1.75,1.16H114.49a2.08,2.08,0,0,1,1.75,2.29V196.8Z"/><path class="cls-2" d="M55.78,96.47s-3.87-3.53-4.3-8.08c0,0,1.11-3.29,8-6.6l5.29-2.09,2.69-1.49,2.7,0.46,4.18,1.2,1.77,2L66.9,83l-5.09,6.14,0.4,6.15Z"/><path class="cls-2" d="M59.84,103.87a24.61,24.61,0,0,1-4.76-7.34s0.84-2.38,4.47-3.25l4.31,0.66,2.46,5.43Z"/><path class="cls-2" d="M90.07,98A19.37,19.37,0,0,0,91.2,87.48s-5.46-5.32-16-6.28L72,80.79l-5.29.15-2.82,2,3.37,2,3.81-.89,2.17,0.5a73.53,73.53,0,0,0,11.57,4.57,26.86,26.86,0,0,0-.5,7.83Z"/><path class="cls-2" d="M21.41,142.87a3.44,3.44,0,0,1-3.86-1.58l-2.07-3.17S12.61,134,12,136.5c0,0-1,.45,1.23,5.55l1.08,2,1.14,2.73s0,3.89,2.61,3.29l2.22-.91,3.93-1.43Z"/><path class="cls-2" d="M60.61,95.58s-4.38,4.27,0,11.88l1.1,6.15,2,12.1s6.43,7.21,20.48,3.64c0,0,5.56-22.27.63-29.12,0,0-2-4.56-12.7-6.47,0,0-8.5-.74-11.49,1.82"/><path class="cls-2" d="M73.87,91.83l2.54,5.46a4.68,4.68,0,0,1-5.16,4.19s-3.74.05-4.18-3.51Z"/><path class="cls-2" d="M63.63,80.74S57,83.27,58.12,89.56a17.6,17.6,0,0,0,2,4l0.7,0.64a2,2,0,0,0,1.6,2.15l3.06,1.91s3.77,1.44,6.51-.11c0,0,3.11-3.29,1.83-6.67,0,0-.92-11.55-9.85-10.71H63.63Z"/><path class="cls-2" d="M63.69,125.71l-0.2-1.21-1.71,3.77-3.42.32L50.09,131l-10.73,1.54L35,133.72l-4.11,1.45-10.59,5c-1.1,8.07,4.12,8.11,4.12,8.11l4.13-1.19,13.41-4.18,11.28-1.32,13-2.82L70.14,141l-2,10-0.94,7L64.12,172.9c-0.56,5.36,5.51,5.05,5.51,5.05,6.22,1.27,8.1-9.78,8.1-9.78l1.78-12.11,5.74-15.13c0.88-4.29-.43-9-1.33-11.52C70.05,132.83,63.69,125.71,63.69,125.71Z"/><path class="cls-2" d="M66.44,175.52l-1.91,3.87s-3.22,8,4.09,7.28a7.35,7.35,0,0,0,2.71-5.36L71.88,179s5.88-6.94,3.75-9.86c0,0-3.6-5.06-6.15-2a10.88,10.88,0,0,0-2.1,6.3Z"/><path class="cls-2" d="M80.12,99.49s-2.19,6.36,5.13,9.24c0,0,4.95-3.45,5.3-8l1-4.12s-6.14.09-7.22-1.93Z"/><text class="cls-3" transform="translate(18.82 27.35)">Stress positions</text><text class="cls-4" transform="translate(31.18 41.87)">Includes sitting<tspan x="-3.56" y="8.5">with legs straight</tspan><tspan x="-3.55" y="17">out, and kneeling</tspan><tspan x="11.56" y="25.5">positions</tspan></text></svg>